<?xml version="1.0" encoding="utf-8"?>
<svg viewBox="160.197 59.871 254.77 189.626" width="254.77" height="189.626" xmlns="http://www.w3.org/2000/svg">
  <g class="cls-1" transform="matrix(1, 0, 0, 1, 149.396698, 49.719402)" style="opacity: 0.4;">
    <path class="cls-2" d="M221.11,166.67c-47.76,45.59-85.4,43.38-133.17-2.21-45.59-43.52-48-84-2.42-127.55C133.29-8.68,159.23,11.95,219,40,280.88,69.1,266.71,123.15,221.11,166.67Z" style="fill: rgb(0, 191, 214);"/>
  </g>
  <path class="cls-3" d="M 394.057 198.039 L 405.787 198.039 C 407.791 198.039 409.417 196.414 409.417 194.409 L 409.417 133.939 C 409.422 118.904 397.232 106.714 382.197 106.719 L 350.397 106.719 C 347.889 106.719 345.857 108.752 345.857 111.259 L 345.857 198.039 L 358.227 198.039 C 358.227 184.256 373.148 175.642 385.084 182.533 C 390.624 185.732 394.037 191.643 394.037 198.039" style="fill: rgb(255, 255, 255); stroke: rgb(0, 0, 0); stroke-miterlimit: 10;"/>
  <circle class="cls-3" cx="376.157" cy="199.799" r="15.14" style="fill: rgb(255, 255, 255); stroke: rgb(0, 0, 0); stroke-miterlimit: 10;"/>
  <path class="cls-4" d="M 365.987 200.259 C 365.976 205.469 370.187 209.703 375.397 209.719" style="fill: none; stroke: rgb(0, 0, 0); stroke-linecap: round; stroke-linejoin: round;"/>
  <circle class="cls-5" cx="376.157" cy="199.799" r="4.72" style="fill: rgb(230, 230, 230); stroke: rgb(0, 0, 0); stroke-linecap: round; stroke-linejoin: round;"/>
  <circle class="cls-3" cx="277.627" cy="199.559" r="15.14" style="fill: rgb(255, 255, 255); stroke: rgb(0, 0, 0); stroke-miterlimit: 10;"/>
  <path class="cls-4" d="M 287.787 199.099 C 287.787 193.886 283.56 189.659 278.347 189.659" style="fill: none; stroke: rgb(0, 0, 0); stroke-linecap: round; stroke-linejoin: round;"/>
  <circle class="cls-5" cx="277.627" cy="199.559" r="4.72" style="fill: rgb(230, 230, 230); stroke: rgb(0, 0, 0); stroke-linecap: round; stroke-linejoin: round;"/>
  <circle class="cls-3" cx="164.328" cy="150.088" r="15.141" transform="matrix(0.99995, -0.01, 0.01, 0.99995, 147.856705, 51.419415)" style="fill: rgb(255, 255, 255); stroke: rgb(0, 0, 0); stroke-miterlimit: 10;"/>
  <path class="cls-4" d="M 323.877 199.239 C 323.822 194.026 319.55 189.844 314.337 189.899" style="fill: none; stroke: rgb(0, 0, 0); stroke-linecap: round; stroke-linejoin: round;"/>
  <circle class="cls-5" cx="164.32" cy="150.08" r="4.72" transform="matrix(0.999947, -0.010297, 0.010297, 0.999947, 147.856705, 51.419415)" style="fill: rgb(230, 230, 230); stroke: rgb(0, 0, 0); stroke-linecap: round; stroke-linejoin: round;"/>
  <circle class="cls-3" cx="228.607" cy="199.559" r="15.14" style="fill: rgb(255, 255, 255); stroke: rgb(0, 0, 0); stroke-miterlimit: 10;"/>
  <path class="cls-4" d="M 218.397 200.009 C 218.397 205.223 222.623 209.449 227.837 209.449" style="fill: none; stroke: rgb(0, 0, 0); stroke-linecap: round; stroke-linejoin: round;"/>
  <circle class="cls-5" cx="228.607" cy="199.559" r="4.72" style="fill: rgb(230, 230, 230); stroke: rgb(0, 0, 0); stroke-linecap: round; stroke-linejoin: round;"/>
  <circle class="cls-3" cx="192.927" cy="199.799" r="15.14" style="fill: rgb(255, 255, 255); stroke: rgb(0, 0, 0); stroke-miterlimit: 10;"/>
  <path class="cls-4" d="M 182.767 200.259 C 182.756 205.481 186.985 209.719 192.207 209.719" style="fill: none; stroke: rgb(0, 0, 0); stroke-linecap: round; stroke-linejoin: round;"/>
  <circle class="cls-5" cx="192.927" cy="199.799" r="4.72" style="fill: rgb(230, 230, 230); stroke: rgb(0, 0, 0); stroke-linecap: round; stroke-linejoin: round;"/>
  <path class="cls-6" d="M 408.997 171.889 L 405.147 171.889 C 402.737 171.89 400.567 173.348 399.657 175.579 L 399.657 175.579 C 398.056 179.483 400.928 183.762 405.147 183.759 L 408.997 183.759" style="fill: rgb(251, 176, 59); stroke: rgb(0, 0, 0); stroke-miterlimit: 10;"/>
  <path class="cls-7" d="M 259.707 198.039 C 259.698 184.252 274.618 175.626 286.562 182.513 C 289.938 184.459 292.586 187.452 294.107 191.039 L 297.207 191.039 C 302.587 178.345 319.691 176.236 327.994 187.242 C 330.341 190.353 331.609 194.143 331.607 198.039 L 340.397 198.039 L 340.397 94.479 C 340.397 90.972 337.554 88.129 334.047 88.129 L 169.947 88.129 C 166.44 88.129 163.597 90.972 163.597 94.479 L 163.597 194.409 C 163.597 196.414 165.222 198.039 167.227 198.039 L 174.887 198.039 C 174.878 184.252 189.798 175.626 201.742 182.513 C 205.118 184.459 207.766 187.452 209.287 191.039 L 212.397 191.039 C 217.777 178.345 234.881 176.236 243.184 187.242 C 245.531 190.353 246.799 194.143 246.797 198.039 Z" style="fill: rgb(255, 255, 255); stroke: rgb(0, 0, 0); stroke-linecap: round; stroke-linejoin: round;"/>
  <rect class="cls-5" x="-414.967" y="-199.759" width="14.98" height="6.74" rx="3.37" ry="3.37" transform="matrix(-1, 0, 0, -1, 0, 0)" style="fill: rgb(230, 230, 230); stroke: rgb(0, 0, 0); stroke-linecap: round; stroke-linejoin: round;"/>
  <rect class="cls-5" x="-172.397" y="-199.559" width="11.68" height="6.34" rx="3.17" ry="3.17" transform="matrix(-1, 0, 0, -1, 0, 0)" style="fill: rgb(230, 230, 230); stroke: rgb(0, 0, 0); stroke-linecap: round; stroke-linejoin: round;"/>
  <path class="cls-5" d="M 368.487 114.289 L 399.067 114.289 C 400.276 114.289 401.257 115.27 401.257 116.479 L 401.257 147.059 C 401.257 148.269 400.276 149.249 399.067 149.249 L 389.717 149.249 C 376.788 149.249 366.307 138.768 366.307 125.839 L 366.307 116.479 C 366.307 115.27 367.287 114.289 368.497 114.289 Z" style="fill: rgb(230, 230, 230); stroke: rgb(0, 0, 0); stroke-linecap: round; stroke-linejoin: round;" transform="matrix(-1, 0, 0, -1, 767.563965, 263.537994)"/>
  <rect class="cls-5" x="-361.917" y="-149.249" width="10.07" height="34.95" rx="4" ry="4" transform="matrix(-1, 0, 0, -1, 0, 0)" style="fill: rgb(230, 230, 230); stroke: rgb(0, 0, 0); stroke-linecap: round; stroke-linejoin: round;"/>
  <path class="cls-8" d="M 160.197 184.569 L 161.337 184.569 C 162.585 184.569 163.597 185.581 163.597 186.829 L 163.597 186.829 C 163.597 188.078 162.585 189.089 161.337 189.089 L 160.197 189.089 C 160.197 189.089 160.197 189.089 160.197 189.089 L 160.197 184.579 C 160.197 184.579 160.197 184.569 160.197 184.569 Z" style="fill: rgb(251, 52, 73); stroke: rgb(0, 0, 0); stroke-miterlimit: 10;" transform="matrix(-1, 0, 0, -1, 323.794006, 373.65802)"/>
  <rect class="cls-9" x="-367.317" y="-162.099" width="14.23" height="6.71" rx="3.2" ry="3.2" transform="matrix(-1, 0, 0, -1, 0, 0)" style="fill: none; stroke: rgb(0, 0, 0); stroke-miterlimit: 10;"/>
  <line class="cls-4" x1="364.287" y1="158.749" x2="361.037" y2="158.749" style="fill: none; stroke: rgb(0, 0, 0); stroke-linecap: round; stroke-linejoin: round;"/>
  <rect class="cls-7" x="340.387" y="183.749" width="5.49" height="14.29" style="fill: rgb(255, 255, 255); stroke: rgb(0, 0, 0); stroke-linecap: round; stroke-linejoin: round;"/>
  <line class="cls-4" x1="340.387" y1="164.079" x2="163.597" y2="164.079" style="fill: none; stroke: rgb(0, 0, 0); stroke-linecap: round; stroke-linejoin: round;"/>
  <line class="cls-4" x1="385.467" y1="158.749" x2="397.117" y2="158.749" style="fill: none; stroke: rgb(0, 0, 0); stroke-linecap: round; stroke-linejoin: round;"/>
  <path class="cls-3" d="M 356.887 99.369 L 374.887 99.369 C 378.959 99.353 382.271 102.647 382.277 106.719 L 382.277 106.719 C 382.277 106.719 382.277 106.719 382.277 106.719 L 356.877 106.719 C 356.877 106.719 356.877 106.719 356.877 106.719 L 356.877 99.369 C 356.877 99.369 356.887 99.369 356.887 99.369 Z" style="fill: rgb(255, 255, 255); stroke: rgb(0, 0, 0); stroke-miterlimit: 10;"/>
  <line class="cls-4" x1="361.587" y1="101.529" x2="361.587" y2="104.569" style="fill: none; stroke: rgb(0, 0, 0); stroke-linecap: round; stroke-linejoin: round;"/>
  <line class="cls-4" x1="364.837" y1="101.529" x2="364.837" y2="104.569" style="fill: none; stroke: rgb(0, 0, 0); stroke-linecap: round; stroke-linejoin: round;"/>
  <line class="cls-4" x1="367.957" y1="101.529" x2="367.957" y2="104.569" style="fill: none; stroke: rgb(0, 0, 0); stroke-linecap: round; stroke-linejoin: round;"/>
  <line class="cls-4" x1="371.207" y1="101.529" x2="371.207" y2="104.569" style="fill: none; stroke: rgb(0, 0, 0); stroke-linecap: round; stroke-linejoin: round;"/>
  <line class="cls-4" x1="297.997" y1="164.069" x2="297.997" y2="166.649" style="fill: none; stroke: rgb(0, 0, 0); stroke-linecap: round; stroke-linejoin: round;"/>
  <line class="cls-4" x1="296.647" y1="166.649" x2="299.557" y2="166.649" style="fill: none; stroke: rgb(0, 0, 0); stroke-linecap: round; stroke-linejoin: round;"/>
  <line class="cls-4" x1="292.427" y1="164.069" x2="292.427" y2="166.649" style="fill: none; stroke: rgb(0, 0, 0); stroke-linecap: round; stroke-linejoin: round;"/>
  <line class="cls-4" x1="291.077" y1="166.649" x2="293.987" y2="166.649" style="fill: none; stroke: rgb(0, 0, 0); stroke-linecap: round; stroke-linejoin: round;"/>
  <line class="cls-4" x1="214.077" y1="164.069" x2="214.077" y2="166.649" style="fill: none; stroke: rgb(0, 0, 0); stroke-linecap: round; stroke-linejoin: round;"/>
  <line class="cls-4" x1="212.727" y1="166.649" x2="215.637" y2="166.649" style="fill: none; stroke: rgb(0, 0, 0); stroke-linecap: round; stroke-linejoin: round;"/>
  <line class="cls-4" x1="208.507" y1="164.069" x2="208.507" y2="166.649" style="fill: none; stroke: rgb(0, 0, 0); stroke-linecap: round; stroke-linejoin: round;"/>
  <line class="cls-4" x1="207.157" y1="166.649" x2="210.067" y2="166.649" style="fill: none; stroke: rgb(0, 0, 0); stroke-linecap: round; stroke-linejoin: round;"/>
</svg>