<?xml version="1.0" encoding="utf-8"?>
<svg viewBox="149.782 106.011 207.96 189.637" width="207.96" height="189.637" xmlns="http://www.w3.org/2000/svg">
  <path fill="#00BFD6" fill-rule="nonzero" d="M168.6 157.43c-47.76 45.59-85.4 43.38-133.17-2.21-45.59-43.52-48-84-2.42-127.55 47.76-45.59 73.71-25 133.47 3.11 61.88 29.08 47.71 83.13 2.12 126.65z" opacity=".4" transform="matrix(1, 0, 0, 1, 149.775055, 105.110634)"/>
  <path fill="#FFF" fill-rule="nonzero" stroke="#000" stroke-linecap="round" stroke-linejoin="round" d="M108.21 155.99l52.88-30.96V64.4l-52.88-30.52" transform="matrix(1, 0, 0, 1, 149.775055, 105.110634)"/>
  <path fill="#CAC8C8" fill-rule="nonzero" stroke="#000" stroke-linecap="round" stroke-linejoin="round" d="M108.21 33.88L55.33 64.4v58.68a4.12 4.12 0 0 0 2.06 3.57L108.21 156" transform="matrix(1, 0, 0, 1, 149.775055, 105.110634)"/>
  <path stroke="#000" stroke-linecap="round" stroke-linejoin="round" d="M159.71 65.17l-51.5 29.74-51.5-29.74M108.21 94.93v61.06M108.21 92.77v14.44" transform="matrix(1, 0, 0, 1, 149.775055, 105.110634)"/>
  <path fill="#CAC8C8" fill-rule="nonzero" stroke="#000" stroke-linecap="round" stroke-linejoin="round" d="M50.53 61.21v13.47l57.68 33.07V81.89z" transform="matrix(1, 0, 0, 1, 149.775055, 105.110634)"/>
  <path fill="#FFF" fill-rule="nonzero" stroke="#000" stroke-linecap="round" stroke-linejoin="round" d="M165.89 61.21v13.47l-57.68 33.07V87.38l50.82-27.47z" transform="matrix(1, 0, 0, 1, 149.775055, 105.110634)"/>
  <path fill="#F2F2F2" fill-rule="nonzero" stroke="#000" stroke-linecap="round" stroke-linejoin="round" d="M165.89 60.86l-57.68 33.07-57.68-33.07L106.16 29a4.12 4.12 0 0 1 4.1 0l55.63 31.86z" transform="matrix(1, 0, 0, 1, 149.775055, 105.110634)"/>
  <path fill="#FFF" fill-rule="nonzero" stroke="#000" stroke-linecap="round" stroke-linejoin="round" d="M76.46 139.62l39.83 2.55a7.48 7.48 0 1 0 0-14.96h-.85a59.28 59.28 0 0 1-32.88-10 33.58 33.58 0 0 0-18.63-5.64h-16.4l.7 35.78 44 14.73a20.77 20.77 0 0 0 14.52-.5l61.31-25.35a7.22 7.22 0 0 0 3.79-9.71 7.22 7.22 0 0 0-9.24-3.67L122.54 139" transform="matrix(1, 0, 0, 1, 149.775055, 105.110634)"/>
  <rect width="14.08" height="44.56" x="34.14" y="107.02" fill="#F2F2F2" fill-rule="nonzero" stroke="#000" stroke-linecap="round" stroke-linejoin="round" rx="5.53" transform="matrix(1, 0, 0, 1, 149.775055, 105.110634)"/>
  <circle cx="41.45" cy="142.65" r="2.5" fill="#CCC" fill-rule="nonzero" stroke="#000" transform="matrix(1, 0, 0, 1, 149.775055, 105.110634)"/>
</svg>